<svg width="7" height="11" viewBox="0 0 7 11" fill="none" xmlns="http://www.w3.org/2000/svg">
<path fill-rule="evenodd" clip-rule="evenodd" d="M5.77934 0.220316C5.91979 0.360942 5.99868 0.551566 5.99868 0.750317C5.99868 0.949067 5.91979 1.13969 5.77934 1.28032L2.05934 5.00032L5.77934 8.72032C5.85303 8.78898 5.91213 8.87178 5.95312 8.96378C5.99411 9.05578 6.01616 9.15509 6.01793 9.25579C6.01971 9.3565 6.00118 9.45653 5.96346 9.54991C5.92574 9.6433 5.8696 9.72814 5.79838 9.79935C5.72716 9.87057 5.64233 9.92672 5.54894 9.96444C5.45555 10.0022 5.35552 10.0207 5.25482 10.0189C5.15412 10.0171 5.0548 9.99509 4.9628 9.9541C4.8708 9.91311 4.788 9.854 4.71934 9.78032L0.46934 5.53032C0.328889 5.38969 0.25 5.19907 0.25 5.00032C0.25 4.80157 0.328889 4.61094 0.46934 4.47032L4.71934 0.220316C4.85997 0.0798659 5.05059 0.000976562 5.24934 0.000976562C5.44809 0.000976562 5.63871 0.0798659 5.77934 0.220316Z" fill="#222222"/>
</svg>
