<svg width="20" height="20" viewBox="0 0 20 20" fill="none" xmlns="http://www.w3.org/2000/svg">
<g filter="url(#filter0_d_200_2)">
<path d="M3.10525 2.2877C2.98136 2.27013 2.85503 2.28385 2.7378 2.3276C2.62056 2.37135 2.51613 2.44374 2.43402 2.53817C2.35191 2.6326 2.29474 2.74608 2.26771 2.86826C2.24068 2.99044 2.24465 3.11744 2.27925 3.2377L3.69325 8.1637C3.78314 8.47671 3.97245 8.75198 4.2326 8.9479C4.49274 9.14382 4.80958 9.24975 5.13525 9.2497H11.2503C11.4492 9.2497 11.6399 9.32871 11.7806 9.46937C11.9212 9.61002 12.0003 9.80078 12.0003 9.9997C12.0003 10.1986 11.9212 10.3894 11.7806 10.53C11.6399 10.6707 11.4492 10.7497 11.2503 10.7497H5.13525C4.80958 10.7496 4.49274 10.8556 4.2326 11.0515C3.97245 11.2474 3.78314 11.5227 3.69325 11.8357L2.27925 16.7617C2.24465 16.8819 2.24068 17.009 2.26771 17.1311C2.29474 17.2533 2.35191 17.3668 2.43402 17.4612C2.51613 17.5557 2.62056 17.628 2.7378 17.6718C2.85503 17.7155 2.98136 17.7293 3.10525 17.7117C8.80154 16.9023 14.1266 14.411 18.3983 10.5567C18.4762 10.4864 18.5386 10.4005 18.5813 10.3045C18.624 10.2086 18.646 10.1047 18.646 9.9997C18.646 9.89468 18.624 9.79084 18.5813 9.69489C18.5386 9.59894 18.4762 9.51302 18.3983 9.4427C14.1266 5.58843 8.80154 3.09707 3.10525 2.2877Z" fill="#222222"/>
</g>
<defs>
<filter id="filter0_d_200_2" x="-1" y="0" width="22" height="22" filterUnits="userSpaceOnUse" color-interpolation-filters="sRGB">
<feFlood flood-opacity="0" result="BackgroundImageFix"/>
<feColorMatrix in="SourceAlpha" type="matrix" values="0 0 0 0 0 0 0 0 0 0 0 0 0 0 0 0 0 0 127 0" result="hardAlpha"/>
<feOffset dy="1"/>
<feGaussianBlur stdDeviation="0.5"/>
<feColorMatrix type="matrix" values="0 0 0 0 0 0 0 0 0 0 0 0 0 0 0 0 0 0 0.25 0"/>
<feBlend mode="normal" in2="BackgroundImageFix" result="effect1_dropShadow_200_2"/>
<feBlend mode="normal" in="SourceGraphic" in2="effect1_dropShadow_200_2" result="shape"/>
</filter>
</defs>
</svg>
