<svg width="20" height="20" viewBox="0 0 20 20" fill="none" xmlns="http://www.w3.org/2000/svg">
<path d="M3.10501 2.288C2.98111 2.27044 2.85479 2.28416 2.73755 2.32791C2.62031 2.37165 2.51588 2.44404 2.43378 2.53847C2.35167 2.63291 2.2945 2.74638 2.26746 2.86856C2.24043 2.99074 2.2444 3.11775 2.27901 3.238L3.69301 8.164C3.78289 8.47702 3.97221 8.75228 4.23235 8.9482C4.4925 9.14412 4.80934 9.25006 5.13501 9.25H11.25C11.4489 9.25 11.6397 9.32902 11.7803 9.46967C11.921 9.61032 12 9.80109 12 10C12 10.1989 11.921 10.3897 11.7803 10.5303C11.6397 10.671 11.4489 10.75 11.25 10.75H5.13501C4.80934 10.7499 4.4925 10.8559 4.23235 11.0518C3.97221 11.2477 3.78289 11.523 3.69301 11.836L2.27901 16.762C2.2444 16.8823 2.24043 17.0093 2.26746 17.1314C2.2945 17.2536 2.35167 17.3671 2.43378 17.4615C2.51588 17.556 2.62031 17.6283 2.73755 17.6721C2.85479 17.7158 2.98111 17.7296 3.10501 17.712C8.8013 16.9026 14.1263 14.4113 18.398 10.557C18.476 10.4867 18.5384 10.4008 18.581 10.3048C18.6237 10.2089 18.6458 10.105 18.6458 10C18.6458 9.89499 18.6237 9.79114 18.581 9.69519C18.5384 9.59924 18.476 9.51332 18.398 9.443C14.1263 5.58874 8.8013 3.09737 3.10501 2.288Z" fill="#222222"/>
</svg>
