<svg width="20" height="20" viewBox="0 0 20 20" fill="none" xmlns="http://www.w3.org/2000/svg">
<g filter="url(#filter0_d_736_302)">
<path d="M5.43302 13.9172L6.69502 10.7622C6.89617 10.2596 7.19725 9.80302 7.58002 9.42018L14.5 2.50218C14.8978 2.10436 15.4374 1.88086 16 1.88086C16.5626 1.88086 17.1022 2.10436 17.5 2.50218C17.8978 2.9 18.1213 3.43957 18.1213 4.00218C18.1213 4.56479 17.8978 5.10435 17.5 5.50218L10.58 12.4202C10.197 12.8032 9.74002 13.1052 9.23702 13.3062L6.08302 14.5682C5.99216 14.6046 5.89262 14.6135 5.79674 14.5938C5.70087 14.5741 5.61287 14.5267 5.54366 14.4575C5.47446 14.3883 5.42708 14.3003 5.40742 14.2045C5.38775 14.1086 5.39665 14.009 5.43302 13.9182V13.9172Z" fill="#222222"/>
<path d="M3.5 5.75C3.5 5.06 4.06 4.5 4.75 4.5H10C10.1989 4.5 10.3897 4.42098 10.5303 4.28033C10.671 4.13968 10.75 3.94891 10.75 3.75C10.75 3.55109 10.671 3.36032 10.5303 3.21967C10.3897 3.07902 10.1989 3 10 3H4.75C4.02065 3 3.32118 3.28973 2.80546 3.80546C2.28973 4.32118 2 5.02065 2 5.75V15.25C2 15.9793 2.28973 16.6788 2.80546 17.1945C3.32118 17.7103 4.02065 18 4.75 18H14.25C14.9793 18 15.6788 17.7103 16.1945 17.1945C16.7103 16.6788 17 15.9793 17 15.25V10C17 9.80109 16.921 9.61032 16.7803 9.46967C16.6397 9.32902 16.4489 9.25 16.25 9.25C16.0511 9.25 15.8603 9.32902 15.7197 9.46967C15.579 9.61032 15.5 9.80109 15.5 10V15.25C15.5 15.94 14.94 16.5 14.25 16.5H4.75C4.06 16.5 3.5 15.94 3.5 15.25V5.75Z" fill="#222222"/>
</g>
<defs>
<filter id="filter0_d_736_302" x="-1" y="0" width="22" height="22" filterUnits="userSpaceOnUse" color-interpolation-filters="sRGB">
<feFlood flood-opacity="0" result="BackgroundImageFix"/>
<feColorMatrix in="SourceAlpha" type="matrix" values="0 0 0 0 0 0 0 0 0 0 0 0 0 0 0 0 0 0 127 0" result="hardAlpha"/>
<feOffset dy="1"/>
<feGaussianBlur stdDeviation="0.5"/>
<feColorMatrix type="matrix" values="0 0 0 0 0 0 0 0 0 0 0 0 0 0 0 0 0 0 0.25 0"/>
<feBlend mode="normal" in2="BackgroundImageFix" result="effect1_dropShadow_736_302"/>
<feBlend mode="normal" in="SourceGraphic" in2="effect1_dropShadow_736_302" result="shape"/>
</filter>
</defs>
</svg>
