<svg width="20" height="20" viewBox="0 0 20 20" fill="none" xmlns="http://www.w3.org/2000/svg">
<path fill-rule="evenodd" clip-rule="evenodd" d="M11.78 5.22C11.9204 5.36063 11.9993 5.55125 11.9993 5.75C11.9993 5.94875 11.9204 6.13937 11.78 6.28L8.06 10L11.78 13.72C11.8537 13.7887 11.9128 13.8715 11.9538 13.9635C11.9948 14.0555 12.0168 14.1548 12.0186 14.2555C12.0204 14.3562 12.0018 14.4562 11.9641 14.5496C11.9264 14.643 11.8703 14.7278 11.799 14.799C11.7278 14.8703 11.643 14.9264 11.5496 14.9641C11.4562 15.0018 11.3562 15.0204 11.2555 15.0186C11.1548 15.0168 11.0555 14.9948 10.9635 14.9538C10.8715 14.9128 10.7887 14.8537 10.72 14.78L6.47 10.53C6.32955 10.3894 6.25066 10.1988 6.25066 10C6.25066 9.80125 6.32955 9.61063 6.47 9.47L10.72 5.22C10.8606 5.07955 11.0512 5.00066 11.25 5.00066C11.4487 5.00066 11.6394 5.07955 11.78 5.22Z" fill="#222222"/>
</svg>
