<svg width="222" height="58" viewBox="0 0 222 58" fill="none" xmlns="http://www.w3.org/2000/svg">
<path fill-rule="evenodd" clip-rule="evenodd" d="M21.0714 48.6537V22.1429L14.5074 51.7384C9.30285 53.5675 4.92774 53.4736 2.47705 51.023C-2.7826 45.7633 2.81362 31.6395 14.9766 19.4766C27.1395 7.31362 41.2633 1.7174 46.523 6.97705C51.7826 12.2367 46.1864 26.3605 34.0234 38.5234C29.7915 42.7554 25.3222 46.1924 21.0714 48.6537Z" fill="#40DE6C"/>
<path d="M64.692 47.432C63.028 47.432 61.54 47.144 60.228 46.568C58.916 45.992 57.812 45.144 56.916 44.024C56.02 42.872 55.332 41.496 54.852 39.896C54.372 38.264 54.132 36.408 54.132 34.328C54.132 31.64 54.532 29.32 55.332 27.368C56.132 25.384 57.316 23.864 58.884 22.808C60.484 21.752 62.42 21.224 64.692 21.224C66.356 21.224 67.828 21.512 69.108 22.088C70.42 22.664 71.524 23.528 72.42 24.68C73.316 25.8 74.004 27.176 74.484 28.808C74.964 30.408 75.204 32.248 75.204 34.328C75.204 37.016 74.804 39.352 74.004 41.336C73.204 43.288 72.02 44.792 70.452 45.848C68.884 46.904 66.964 47.432 64.692 47.432ZM64.644 43.544C65.828 43.544 66.852 43.224 67.716 42.584C68.58 41.944 69.236 40.952 69.684 39.608C70.164 38.232 70.404 36.472 70.404 34.328C70.404 32.728 70.276 31.352 70.02 30.2C69.764 29.016 69.38 28.056 68.868 27.32C68.388 26.552 67.796 25.992 67.092 25.64C66.388 25.288 65.588 25.112 64.692 25.112C63.508 25.112 62.484 25.432 61.62 26.072C60.756 26.712 60.084 27.704 59.604 29.048C59.124 30.392 58.884 32.168 58.884 34.376C58.884 35.976 59.012 37.352 59.268 38.504C59.556 39.656 59.94 40.616 60.42 41.384C60.932 42.12 61.54 42.664 62.244 43.016C62.98 43.368 63.78 43.544 64.644 43.544ZM79.7561 47V21.656H84.3161L84.5081 26.072H84.7481C85.3561 24.472 86.3001 23.272 87.5801 22.472C88.8921 21.64 90.3641 21.224 91.9961 21.224C93.1161 21.224 94.1401 21.416 95.0681 21.8C96.0281 22.152 96.8441 22.712 97.5161 23.48C98.1881 24.248 98.7001 25.256 99.0521 26.504C99.4041 27.72 99.5801 29.208 99.5801 30.968V47H94.8281V31.736C94.8281 30.136 94.6521 28.856 94.3001 27.896C93.9801 26.936 93.4681 26.232 92.7641 25.784C92.0921 25.336 91.2281 25.112 90.1721 25.112C88.9561 25.112 87.9161 25.448 87.0521 26.12C86.2201 26.76 85.5801 27.64 85.1321 28.76C84.7161 29.88 84.5081 31.16 84.5081 32.6V47H79.7561ZM105.879 47V12.008H118.503C120.647 12.008 122.423 12.376 123.831 13.112C125.239 13.816 126.295 14.84 126.999 16.184C127.703 17.528 128.055 19.144 128.055 21.032C128.055 22.28 127.863 23.432 127.479 24.488C127.095 25.544 126.535 26.44 125.799 27.176C125.095 27.912 124.215 28.424 123.159 28.712V28.952C124.439 29.24 125.495 29.784 126.327 30.584C127.159 31.384 127.799 32.36 128.247 33.512C128.695 34.632 128.919 35.864 128.919 37.208C128.919 39.256 128.487 41.016 127.623 42.488C126.791 43.96 125.559 45.08 123.927 45.848C122.327 46.616 120.359 47 118.023 47H105.879ZM110.727 43.064H117.687C119.799 43.064 121.351 42.52 122.343 41.432C123.367 40.344 123.879 38.824 123.879 36.872C123.879 34.952 123.367 33.496 122.343 32.504C121.319 31.48 119.927 30.968 118.167 30.968H110.727V43.064ZM110.727 27.224H117.975C119.159 27.224 120.135 27 120.903 26.552C121.671 26.072 122.247 25.416 122.631 24.584C123.015 23.752 123.207 22.776 123.207 21.656C123.207 19.832 122.711 18.424 121.719 17.432C120.759 16.44 119.383 15.944 117.591 15.944H110.727V27.224ZM142.598 47.432C140.934 47.432 139.446 47.144 138.134 46.568C136.822 45.992 135.718 45.144 134.822 44.024C133.926 42.872 133.238 41.496 132.758 39.896C132.278 38.264 132.038 36.408 132.038 34.328C132.038 31.64 132.438 29.32 133.238 27.368C134.038 25.384 135.222 23.864 136.79 22.808C138.39 21.752 140.326 21.224 142.598 21.224C144.262 21.224 145.734 21.512 147.014 22.088C148.326 22.664 149.43 23.528 150.326 24.68C151.222 25.8 151.91 27.176 152.39 28.808C152.87 30.408 153.11 32.248 153.11 34.328C153.11 37.016 152.71 39.352 151.91 41.336C151.11 43.288 149.926 44.792 148.358 45.848C146.79 46.904 144.87 47.432 142.598 47.432ZM142.55 43.544C143.734 43.544 144.758 43.224 145.622 42.584C146.486 41.944 147.142 40.952 147.59 39.608C148.07 38.232 148.31 36.472 148.31 34.328C148.31 32.728 148.182 31.352 147.926 30.2C147.67 29.016 147.286 28.056 146.774 27.32C146.294 26.552 145.702 25.992 144.998 25.64C144.294 25.288 143.494 25.112 142.598 25.112C141.414 25.112 140.39 25.432 139.526 26.072C138.662 26.712 137.99 27.704 137.51 29.048C137.03 30.392 136.79 32.168 136.79 34.376C136.79 35.976 136.918 37.352 137.174 38.504C137.462 39.656 137.846 40.616 138.326 41.384C138.838 42.12 139.446 42.664 140.15 43.016C140.886 43.368 141.686 43.544 142.55 43.544ZM165.24 47.432C163.896 47.432 162.696 47.16 161.64 46.616C160.584 46.072 159.672 45.256 158.904 44.168C158.168 43.08 157.608 41.72 157.224 40.088C156.84 38.456 156.648 36.536 156.648 34.328C156.648 31.288 157 28.808 157.704 26.888C158.44 24.936 159.448 23.512 160.728 22.616C162.04 21.688 163.544 21.224 165.24 21.224C166.424 21.224 167.48 21.416 168.408 21.8C169.336 22.184 170.136 22.744 170.808 23.48C171.48 24.184 171.992 25.032 172.344 26.024H172.584L172.728 21.656H177.288V47H172.584V42.632H172.344C171.8 44.104 170.92 45.272 169.704 46.136C168.488 47 167 47.432 165.24 47.432ZM167.016 43.592C168.2 43.592 169.208 43.256 170.04 42.584C170.872 41.912 171.496 41 171.912 39.848C172.328 38.664 172.536 37.336 172.536 35.864V32.792C172.536 31.256 172.312 29.912 171.864 28.76C171.448 27.576 170.824 26.664 169.992 26.024C169.192 25.352 168.2 25.016 167.016 25.016C165.8 25.016 164.776 25.368 163.944 26.072C163.144 26.776 162.52 27.816 162.072 29.192C161.656 30.568 161.448 32.28 161.448 34.328C161.448 36.376 161.656 38.088 162.072 39.464C162.52 40.84 163.144 41.88 163.944 42.584C164.776 43.256 165.8 43.592 167.016 43.592ZM183.209 47V21.656H187.529L187.721 25.928H187.913C188.425 24.36 189.225 23.208 190.313 22.472C191.401 21.736 192.697 21.352 194.201 21.32C194.393 21.32 194.585 21.336 194.777 21.368C195.001 21.368 195.193 21.368 195.353 21.368V25.976C195.161 25.976 194.937 25.976 194.681 25.976C194.457 25.944 194.201 25.928 193.913 25.928C192.633 25.928 191.561 26.184 190.697 26.696C189.833 27.176 189.177 27.912 188.729 28.904C188.281 29.864 188.025 31.048 187.961 32.456V47H183.209ZM205.505 47.432C204.225 47.432 203.057 47.176 202.001 46.664C200.945 46.152 200.033 45.368 199.265 44.312C198.497 43.256 197.905 41.912 197.489 40.28C197.105 38.616 196.913 36.632 196.913 34.328C196.913 31.384 197.249 28.952 197.921 27.032C198.625 25.08 199.617 23.624 200.897 22.664C202.177 21.704 203.713 21.224 205.505 21.224C206.689 21.224 207.745 21.416 208.673 21.8C209.601 22.184 210.401 22.744 211.073 23.48C211.745 24.184 212.257 25.032 212.609 26.024H212.849V12.008H217.553V47H212.993L212.849 42.632H212.609C212.065 44.072 211.185 45.24 209.969 46.136C208.785 47 207.297 47.432 205.505 47.432ZM207.281 43.592C208.465 43.592 209.457 43.272 210.257 42.632C211.089 41.96 211.713 41.048 212.129 39.896C212.577 38.712 212.801 37.368 212.801 35.864V32.792C212.801 31.672 212.673 30.648 212.417 29.72C212.193 28.76 211.841 27.944 211.361 27.272C210.913 26.568 210.337 26.024 209.633 25.64C208.961 25.224 208.177 25.016 207.281 25.016C206.065 25.016 205.041 25.368 204.209 26.072C203.409 26.744 202.785 27.768 202.337 29.144C201.921 30.52 201.713 32.248 201.713 34.328C201.713 36.344 201.921 38.04 202.337 39.416C202.785 40.792 203.409 41.832 204.209 42.536C205.041 43.24 206.065 43.592 207.281 43.592Z" fill="#40DE6C"/>
</svg>
