<svg width="20" height="20" viewBox="0 0 20 20" fill="none" xmlns="http://www.w3.org/2000/svg">
<g filter="url(#filter0_d_736_88)">
<path d="M9.25 13.2498C9.25 13.4487 9.32901 13.6394 9.46967 13.7801C9.61032 13.9207 9.80108 13.9998 10 13.9998C10.1989 13.9998 10.3897 13.9207 10.5303 13.7801C10.671 13.6394 10.75 13.4487 10.75 13.2498V4.63576L13.705 7.76476C13.8427 7.90447 14.0297 7.98466 14.2258 7.98815C14.422 7.99163 14.6117 7.91812 14.7543 7.78339C14.8968 7.64865 14.981 7.46341 14.9886 7.26739C14.9962 7.07136 14.9267 6.88015 14.795 6.73476L10.545 2.23476C10.4749 2.16061 10.3904 2.10155 10.2967 2.06119C10.203 2.02082 10.102 2 10 2C9.89796 2 9.797 2.02082 9.70329 2.06119C9.60958 2.10155 9.52509 2.16061 9.455 2.23476L5.205 6.73476C5.13492 6.80585 5.07974 6.89021 5.0427 6.98291C5.00565 7.0756 4.98748 7.17476 4.98925 7.27456C4.99103 7.37437 5.0127 7.47282 5.05302 7.56414C5.09333 7.65546 5.15147 7.73781 5.22402 7.80637C5.29657 7.87493 5.38208 7.92832 5.47554 7.9634C5.56899 7.99848 5.66851 8.01456 5.76826 8.01068C5.868 8.00681 5.96597 7.98306 6.05642 7.94083C6.14687 7.8986 6.22798 7.83874 6.295 7.76476L9.25 4.63576V13.2498Z" fill="#222222"/>
<path d="M3.5 12.75C3.5 12.5511 3.42098 12.3603 3.28033 12.2197C3.13968 12.079 2.94891 12 2.75 12C2.55109 12 2.36032 12.079 2.21967 12.2197C2.07902 12.3603 2 12.5511 2 12.75V15.25C2 15.9793 2.28973 16.6788 2.80546 17.1945C3.32118 17.7103 4.02065 18 4.75 18H15.25C15.9793 18 16.6788 17.7103 17.1945 17.1945C17.7103 16.6788 18 15.9793 18 15.25V12.75C18 12.5511 17.921 12.3603 17.7803 12.2197C17.6397 12.079 17.4489 12 17.25 12C17.0511 12 16.8603 12.079 16.7197 12.2197C16.579 12.3603 16.5 12.5511 16.5 12.75V15.25C16.5 15.94 15.94 16.5 15.25 16.5H4.75C4.06 16.5 3.5 15.94 3.5 15.25V12.75Z" fill="#222222"/>
</g>
<defs>
<filter id="filter0_d_736_88" x="-1" y="0" width="22" height="22" filterUnits="userSpaceOnUse" color-interpolation-filters="sRGB">
<feFlood flood-opacity="0" result="BackgroundImageFix"/>
<feColorMatrix in="SourceAlpha" type="matrix" values="0 0 0 0 0 0 0 0 0 0 0 0 0 0 0 0 0 0 127 0" result="hardAlpha"/>
<feOffset dy="1"/>
<feGaussianBlur stdDeviation="0.5"/>
<feColorMatrix type="matrix" values="0 0 0 0 0 0 0 0 0 0 0 0 0 0 0 0 0 0 0.25 0"/>
<feBlend mode="normal" in2="BackgroundImageFix" result="effect1_dropShadow_736_88"/>
<feBlend mode="normal" in="SourceGraphic" in2="effect1_dropShadow_736_88" result="shape"/>
</filter>
</defs>
</svg>
